<?xml version="1.0" standalone="no"?>
<!DOCTYPE svg PUBLIC "-//W3C//DTD SVG 20010904//EN"
 "http://www.w3.org/TR/2001/REC-SVG-20010904/DTD/svg10.dtd">
<svg version="1.0" xmlns="http://www.w3.org/2000/svg"
 width="640.000000pt" height="640.000000pt" viewBox="0 0 640.000000 640.000000"
 preserveAspectRatio="xMidYMid meet">
<metadata>
Created by potrace 1.11, written by Peter Selinger 2001-2013
</metadata>
<g transform="translate(0.000000,640.000000) scale(0.100000,-0.100000)"
fill="#000000" stroke="none">
<path d="M2625 4313 c-11 -3 -24 -11 -28 -19 -4 -8 -14 -14 -21 -14 -8 0 -16
-7 -20 -15 -3 -8 -14 -15 -25 -15 -30 0 -51 -11 -51 -26 0 -8 -4 -14 -10 -14
-5 0 -10 -7 -10 -15 0 -17 -29 -34 -47 -28 -7 3 -15 -8 -19 -24 -9 -39 -19
-49 -70 -75 -24 -12 -44 -25 -44 -29 0 -3 -9 -9 -21 -12 -12 -3 -19 -10 -16
-15 9 -13 -30 -72 -47 -72 -8 0 -18 -9 -21 -20 -3 -11 -15 -24 -25 -30 -10 -5
-24 -27 -30 -47 -16 -50 -23 -56 -67 -60 -21 -2 -50 -8 -65 -14 -15 -6 -39 -8
-53 -5 -19 5 -35 0 -61 -20 -30 -24 -49 -29 -132 -35 -53 -4 -111 -6 -128 -3
-18 3 -47 -1 -70 -11 -27 -11 -69 -16 -141 -16 -59 0 -103 -4 -103 -9 0 -6 -7
-10 -14 -10 -19 0 -69 -46 -72 -65 -1 -8 -16 -27 -33 -41 -23 -19 -29 -30 -21
-39 14 -17 -6 -31 -49 -33 -41 -3 -52 -9 -45 -25 2 -7 -2 -21 -10 -32 -14 -19
-15 -19 -16 -2 0 11 -5 15 -11 11 -8 -4 -8 -9 0 -17 12 -12 15 -47 4 -48 -34
-3 -69 -12 -82 -18 -9 -5 -41 -12 -71 -15 -30 -4 -85 -14 -123 -23 -52 -12
-70 -13 -82 -3 -20 16 -40 3 -24 -16 24 -30 -9 -39 -116 -34 l-60 3 45 7 c31
5 36 7 17 8 -16 1 -25 6 -22 12 7 11 -83 9 -102 -3 -6 -4 -14 -1 -16 5 -4 10
-6 10 -6 0 -1 -8 9 -16 21 -20 21 -5 21 -6 2 -13 -32 -13 -44 -10 -44 10 0 27
-28 34 -42 11 -16 -25 -88 -29 -88 -5 0 16 -32 19 -136 11 -15 -1 -19 -6 -16
-18 2 -10 -1 -18 -8 -18 -7 0 -19 8 -26 18 -10 13 -17 15 -31 6 -17 -11 -18
-60 -21 -1039 -2 -816 0 -1030 10 -1037 10 -6 10 -8 1 -8 -9 0 -13 -16 -13
-44 0 -26 5 -46 13 -49 10 -4 10 -6 0 -6 -9 -1 -13 -22 -13 -70 0 -46 4 -71
13 -75 9 -5 9 -7 0 -12 -9 -4 -12 -64 -13 -225 0 -146 3 -218 10 -214 5 3 10
12 10 19 0 19 61 30 72 14 12 -20 10 -25 -17 -32 -14 -4 -23 -11 -20 -16 4 -6
-7 -13 -24 -16 l-30 -6 0 -229 0 -229 786 0 c606 0 790 3 802 13 12 9 13 9 7
-1 -6 -9 122 -12 624 -12 l632 0 -7 33 c-5 24 -4 28 4 17 6 -8 11 -23 11 -32
0 -17 74 -18 1329 -18 1257 0 1331 1 1340 17 10 17 10 17 11 1 0 -14 11 -17
75 -17 45 0 73 4 70 10 -8 13 1 11 26 -3 17 -11 22 -10 30 5 6 9 17 17 25 17
8 0 12 -5 9 -10 -4 -6 -12 -7 -18 -4 -9 5 -9 4 -1 -5 8 -8 18 -9 37 -2 17 7
28 7 32 1 4 -6 119 -10 291 -10 l284 0 0 1450 0 1450 -79 0 c-65 0 -83 4 -105
21 -15 12 -25 28 -22 35 3 8 -4 18 -14 24 -12 6 -20 21 -20 35 0 22 -4 25 -40
25 -22 0 -40 4 -40 9 0 17 -33 21 -50 6 -9 -8 -30 -15 -47 -15 -17 0 -36 -7
-43 -15 -8 -9 -30 -15 -56 -15 -24 0 -44 -4 -44 -10 0 -5 -16 -10 -36 -10 -41
0 -74 -15 -74 -34 0 -18 -37 -49 -49 -42 -5 4 -16 -1 -23 -10 -7 -9 -23 -27
-35 -40 -13 -14 -23 -33 -23 -44 0 -10 -5 -22 -10 -25 -8 -5 -7 -11 1 -21 9
-11 7 -14 -10 -14 -14 0 -21 6 -21 20 0 11 -7 20 -15 20 -8 0 -15 -8 -15 -17
-1 -17 -1 -17 -11 0 -10 17 -29 15 -29 -4 0 -6 5 -7 10 -4 6 3 10 -1 10 -11 0
-11 6 -15 20 -11 13 3 20 0 20 -10 0 -10 -6 -13 -16 -9 -9 3 -22 6 -30 6 -8 0
-14 7 -14 15 0 22 -70 85 -95 85 -37 0 -119 32 -146 56 -14 13 -30 24 -36 24
-7 0 -18 6 -25 13 -8 6 -27 19 -43 28 -53 28 -79 44 -98 61 -24 21 -93 33
-136 23 -37 -8 -89 8 -153 47 -32 20 -68 32 -115 38 -67 8 -222 59 -249 81 -8
6 -42 15 -77 19 -34 4 -73 11 -87 15 -43 11 -77 12 -140 4 -74 -11 -115 6
-194 80 -62 58 -119 88 -166 88 -20 0 -48 3 -64 7 -16 4 -33 2 -41 -4 -11 -9
-20 -3 -43 29 -16 22 -32 37 -36 34 -8 -8 -56 37 -56 52 0 7 -10 25 -22 41
-13 15 -39 55 -58 89 -31 52 -39 60 -62 57 -29 -4 -51 21 -63 71 -9 34 -19 40
-61 39 -29 -1 -39 6 -79 58 -25 32 -45 65 -45 72 0 7 -20 40 -45 73 -25 33
-55 80 -67 105 -12 25 -28 51 -35 58 -7 7 -13 20 -13 28 0 7 -16 20 -36 29
-19 8 -49 24 -65 36 -24 17 -48 22 -112 25 -45 1 -91 0 -102 -3z m-2455 -1060
c0 -22 -2 -25 -10 -13 -13 20 -13 40 0 40 6 0 10 -12 10 -27z m3376 -58 c1
-24 -2 -42 -6 -40 -5 3 -10 2 -13 -2 -2 -5 -2 -2 0 5 1 8 3 29 3 48 0 51 15
41 16 -11z m605 -125 c10 -6 19 -17 19 -25 0 -20 -9 -19 -29 3 -9 9 -22 18
-30 20 -22 5 -79 -18 -85 -33 -7 -18 5 -19 23 -2 11 10 12 8 3 -8 -6 -11 -20
-21 -31 -22 -24 -2 -25 -2 -10 31 18 39 96 59 140 36z m-16 -30 c3 -5 1 -10
-6 -10 -7 0 -6 -8 5 -25 l16 -25 -39 0 c-56 0 -68 40 -17 60 28 12 34 12 41 0z
m-89 -53 c8 3 14 0 14 -6 0 -6 -11 -11 -25 -11 -25 0 -32 10 -18 24 4 4 9 3
11 -3 2 -5 10 -7 18 -4z m64 -352 c-6 -30 -8 -33 -9 -13 -1 25 8 62 14 56 2
-2 -1 -21 -5 -43z m20 -49 c0 -3 -4 -8 -10 -11 -5 -3 -10 -1 -10 4 0 6 5 11
10 11 6 0 10 -2 10 -4z m-1393 -208 c-3 -7 -5 -2 -5 12 0 14 2 19 5 13 2 -7 2
-19 0 -25z m1673 22 c0 -5 -2 -10 -4 -10 -3 0 -8 5 -11 10 -3 6 -1 10 4 10 6
0 11 -4 11 -10z m24 -15 c-4 -8 -8 -15 -10 -15 -2 0 -4 7 -4 15 0 8 4 15 10
15 5 0 7 -7 4 -15z m-378 -40 c-3 -8 -1 -15 5 -15 6 0 8 -9 4 -20 -5 -15 2
-24 27 -40 35 -21 31 -28 -5 -8 -39 21 -61 70 -40 91 11 12 15 8 9 -8z m358 0
c-4 -8 -11 -12 -17 -8 -6 4 -8 0 -5 -9 4 -8 -3 -20 -14 -27 -18 -11 -20 -11
-14 4 3 9 6 23 6 30 0 8 10 16 23 18 12 2 23 5 24 6 1 0 0 -6 -3 -14z m-3807
-151 c-3 -3 -12 -4 -19 -1 -8 3 -5 6 6 6 11 1 17 -2 13 -5z m38 -14 c3 -5 1
-10 -4 -10 -6 0 -11 5 -11 10 0 6 2 10 4 10 3 0 8 -4 11 -10z m-97 -17 c16
-15 15 -16 -17 -10 -18 4 -45 8 -60 8 -19 1 -15 4 14 9 22 4 41 8 43 9 2 0 11
-7 20 -16z m199 -48 c0 -17 0 -17 -21 -9 -22 8 -20 24 2 24 10 0 19 -7 19 -15z
m-232 -5 c3 -5 1 -10 -4 -10 -6 0 -11 5 -11 10 0 6 2 10 4 10 3 0 8 -4 11 -10z
m357 -28 c7 -7 23 -12 37 -12 21 0 23 -2 11 -10 -19 -12 -163 -13 -175 -1 -6
5 -21 12 -35 16 -22 7 -23 6 -11 -9 11 -14 11 -16 -1 -16 -15 0 -38 19 -38 31
0 18 195 18 212 1z m523 -2 c-3 -5 -16 -10 -28 -9 -21 0 -21 1 -2 9 28 12 37
12 30 0z m-918 -6 c-3 -3 -12 -4 -19 -1 -8 3 -5 6 6 6 11 1 17 -2 13 -5z
m2040 -10 c-3 -3 -12 -4 -19 -1 -8 3 -5 6 6 6 11 1 17 -2 13 -5z m490 -10 c-3
-3 -12 -4 -19 -1 -8 3 -5 6 6 6 11 1 17 -2 13 -5z m38 -4 c-3 -5 -12 -10 -18
-10 -7 0 -6 4 3 10 19 12 23 12 15 0z m-2350 -20 c8 -13 -25 -13 -45 0 -12 8
-9 10 12 10 15 0 30 -4 33 -10z m2395 -20 c13 -8 13 -10 -2 -10 -9 0 -20 5
-23 10 -8 13 5 13 25 0z m-2395 -10 c3 -5 2 -10 -4 -10 -5 0 -13 5 -16 10 -3
6 -2 10 4 10 5 0 13 -4 16 -10z m636 0 c5 0 9 -9 9 -20 0 -13 10 -24 25 -30
14 -5 25 -14 25 -19 0 -12 52 -29 105 -35 22 -3 41 -5 43 -5 2 -1 1 -5 -2 -10
-9 -14 -133 17 -178 45 -65 40 -91 66 -76 76 7 4 19 6 26 3 8 -3 18 -5 23 -5z
m244 -10 c-3 -5 2 -10 11 -10 10 0 15 -2 13 -5 -3 -2 -23 -1 -45 2 l-39 7 30
7 c17 4 31 7 33 8 2 0 0 -3 -3 -9z m1075 -120 c0 -14 -16 -12 -29 4 -7 8 -23
17 -36 20 -14 4 -25 11 -25 16 0 6 -6 10 -13 10 -15 0 -58 46 -51 53 7 7 154
-92 154 -103z m359 88 c0 -7 -4 -22 -8 -32 -10 -25 -22 -6 -14 22 6 23 23 31
22 10z m234 -18 c5 -4 -3 -5 -17 -3 -15 3 -29 10 -32 15 -7 11 36 1 49 -12z
m-213 -20 c0 -11 -4 -20 -9 -20 -5 0 -7 9 -4 20 3 11 7 20 9 20 2 0 4 -9 4
-20z m-2399 -22 c-7 -18 -6 -29 2 -39 7 -7 0 -5 -15 4 -15 9 -38 17 -50 17
-18 1 -13 6 22 23 25 13 46 22 48 21 1 -1 -2 -13 -7 -26z m674 -28 c14 -15 15
-20 4 -20 -8 0 -20 9 -27 20 -7 11 -8 20 -4 20 5 0 17 -9 27 -20z m2064 4 c2
-2 -7 -4 -22 -4 -14 0 -29 5 -32 10 -6 10 42 4 54 -6z m52 -2 c-7 -2 -18 1
-23 6 -8 8 -4 9 13 5 13 -4 18 -8 10 -11z m-2057 -17 c11 -8 16 -15 10 -15 -5
0 -18 7 -28 15 -11 8 -16 15 -10 15 5 0 18 -7 28 -15z m-114 -15 c-19 -13 -30
-13 -30 0 0 6 10 10 23 10 18 0 19 -2 7 -10z m1390 0 c0 -5 -2 -10 -4 -10 -3
0 -8 5 -11 10 -3 6 -1 10 4 10 6 0 11 -4 11 -10z m485 0 c3 -5 1 -10 -4 -10
-6 0 -11 5 -11 10 0 6 2 10 4 10 3 0 8 -4 11 -10z m1298 3 c-7 -2 -19 -2 -25
0 -7 3 -2 5 12 5 14 0 19 -2 13 -5z m-3238 -13 c-3 -5 -21 -10 -38 -9 -31 1
-31 1 -7 9 36 11 52 11 45 0z m-423 -33 c4 -6 2 -15 -5 -19 -8 -5 -6 -8 6 -8
10 0 15 -4 12 -10 -3 -5 0 -10 7 -11 10 0 11 -2 0 -6 -9 -3 -7 -10 9 -24 14
-12 17 -19 8 -19 -14 1 -46 21 -46 30 0 16 -28 80 -37 83 -6 2 0 2 14 0 14 -3
28 -10 32 -16z m59 -134 c7 -19 5 -23 -11 -23 -11 0 -20 4 -20 9 0 5 -3 17 -6
26 -5 13 -2 16 11 14 10 -2 21 -14 26 -26z m1969 -14 c-12 -9 -12 -10 2 -5 10
3 28 1 40 -4 16 -6 -8 -9 -79 -9 -112 -1 -139 14 -45 24 31 3 64 7 72 9 22 4
27 -4 10 -15z m120 1 c0 -5 -2 -10 -4 -10 -3 0 -8 5 -11 10 -3 6 -1 10 4 10 6
0 11 -4 11 -10z m-1723 -51 l-14 -34 0 37 c1 20 5 35 9 32 4 -3 8 1 9 8 0 8 2
9 5 2 3 -7 -1 -27 -9 -45z m2527 20 c-3 -5 1 -9 8 -9 9 0 10 -2 1 -8 -6 -4
-15 -20 -19 -36 -4 -16 -15 -31 -26 -34 -17 -4 -19 -10 -13 -40 4 -24 2 -38
-7 -43 -10 -7 -10 -9 0 -9 8 0 12 -20 12 -65 0 -37 -4 -65 -10 -65 -5 0 -10
-7 -10 -15 0 -8 -5 -15 -11 -15 -7 0 -9 -11 -6 -30 4 -18 1 -34 -7 -43 -8 -7
-16 -22 -19 -33 -13 -47 6 159 20 221 9 39 18 94 20 123 4 39 9 52 21 53 15 1
15 2 1 6 -10 2 -15 12 -12 26 3 16 12 22 33 23 16 1 27 -3 24 -7z m-2471 -84
c-7 -21 -13 -19 -13 6 0 11 4 18 10 14 5 -3 7 -12 3 -20z m-336 -17 c-3 -8 -6
-5 -6 6 -1 11 2 17 5 13 3 -3 4 -12 1 -19z m117 -13 c-4 -8 -11 -15 -16 -15
-6 0 -5 6 2 15 7 8 14 15 16 15 2 0 1 -7 -2 -15z m-525 -12 c0 -10 -4 -27 -9
-38 -7 -16 -9 -12 -8 18 1 20 6 37 10 37 4 0 8 -8 7 -17z m521 -28 c8 5 20
-18 19 -38 0 -7 -4 -3 -9 8 -5 12 -9 14 -9 6 -1 -11 -5 -10 -16 5 -13 16 -16
17 -25 4 -6 -9 -10 -10 -10 -3 0 6 4 14 10 18 5 3 7 13 3 23 -3 11 1 9 11 -6
10 -12 21 -20 26 -17z m-493 -22 c-1 -14 -9 -29 -17 -31 -13 -5 -13 -3 -1 11
9 12 10 17 2 17 -8 0 -8 4 1 15 17 19 17 19 15 -12z m730 -15 c-3 -7 -5 -2 -5
12 0 14 2 19 5 13 2 -7 2 -19 0 -25z m46 15 c-7 -2 -19 -2 -25 0 -7 3 -2 5 12
5 14 0 19 -2 13 -5z m-822 -40 c-8 -15 -10 -15 -11 -2 0 17 10 32 18 25 2 -3
-1 -13 -7 -23z m49 -23 c0 -11 -4 -20 -9 -20 -7 0 -8 17 -2 38 4 10 11 -2 11
-18z m165 10 c3 -5 2 -10 -4 -10 -5 0 -13 5 -16 10 -3 6 -2 10 4 10 5 0 13 -4
16 -10z m189 -23 c-2 -7 -15 -14 -29 -15 -18 -1 -23 2 -18 14 3 8 12 13 19 10
8 -3 14 -1 14 5 0 6 4 8 10 4 5 -3 7 -11 4 -18z m-90 1 c10 -10 8 -17 -12 -35
-18 -17 -29 -20 -36 -13 -8 8 -8 13 0 18 6 4 13 15 17 25 8 20 13 21 31 5z
m142 -2 c17 -17 18 -36 3 -36 -5 0 -7 5 -4 10 11 17 -7 11 -21 -7 -12 -16 -13
-16 -14 8 0 39 12 48 36 25z m-523 -3 c-18 -7 -16 -21 5 -26 12 -3 13 -5 2 -6
-8 0 -22 4 -30 9 -13 9 -13 11 0 20 8 5 20 9 25 9 6 0 4 -3 -2 -6z m145 -16
c12 0 22 -5 22 -12 0 -25 -12 -45 -27 -45 -8 0 -11 5 -8 10 3 6 1 10 -4 10 -6
0 -11 -7 -11 -15 0 -25 -66 -85 -92 -84 -15 0 -18 3 -8 6 19 7 90 80 90 93 0
6 5 10 12 10 6 0 9 2 7 5 -11 10 -47 -8 -42 -21 3 -9 -3 -14 -18 -15 -13 -1
-33 -3 -44 -4 -11 -2 -60 -5 -110 -8 -56 -4 -70 -3 -36 2 33 4 58 13 66 24 8
12 15 14 20 8 3 -6 25 -11 48 -11 29 0 37 3 28 9 -11 7 -9 10 10 13 16 2 24 9
23 20 -1 14 3 16 25 11 14 -4 36 -7 49 -6z m102 -2 c0 -8 7 -15 15 -15 8 0 15
-4 15 -10 0 -5 -7 -10 -16 -10 -9 0 -18 -9 -21 -20 -7 -28 -49 -27 -56 1 -9
35 9 69 38 69 16 0 25 -6 25 -15z m60 -40 c0 -8 -2 -15 -4 -15 -2 0 -6 7 -10
15 -3 8 -1 15 4 15 6 0 10 -7 10 -15z m683 8 c-7 -2 -21 -2 -30 0 -10 3 -4 5
12 5 17 0 24 -2 18 -5z m-509 -21 c3 -5 -1 -9 -9 -9 -8 0 -12 4 -9 9 3 4 7 8
9 8 2 0 6 -4 9 -8z m486 -3 c0 -6 9 -9 19 -6 13 3 18 1 15 -8 -5 -12 23 -28
51 -30 6 0 10 -10 9 -23 0 -12 5 -22 13 -22 7 0 13 6 13 13 0 7 3 8 8 2 10
-15 32 -17 32 -3 0 6 8 4 19 -6 12 -11 27 -15 44 -11 15 4 28 2 32 -6 5 -7 4
-10 -1 -6 -6 3 -16 2 -24 -4 -12 -7 -11 -9 6 -9 12 0 27 -7 34 -15 10 -12 10
-15 -4 -15 -9 0 -16 5 -16 11 0 7 -13 9 -37 5 -27 -5 -34 -4 -23 3 24 16 8 20
-45 10 -28 -6 -67 -10 -87 -10 -26 0 -38 -5 -38 -15 0 -8 -4 -14 -9 -14 -4 0
-6 12 -3 28 4 26 4 26 -12 7 -8 -11 -16 -17 -16 -12 0 4 1 8 2 10 1 1 -4 12
-11 25 -8 15 -8 22 -1 22 7 0 11 16 10 38 -1 20 -2 40 -1 45 2 12 21 8 21 -4z
m-1220 -19 c0 -5 -21 -10 -47 -9 -36 0 -43 3 -28 9 28 12 75 12 75 0z m628 -7
c-9 -10 -13 -24 -10 -32 3 -8 -1 -12 -9 -9 -21 7 -17 31 6 45 28 16 30 15 13
-4z m687 7 c3 -5 -1 -10 -9 -10 -8 0 -18 5 -21 10 -3 6 1 10 9 10 8 0 18 -4
21 -10z m1653 -26 c-4 -3 -12 5 -18 18 -12 22 -12 22 6 6 10 -10 15 -20 12
-24z m-2921 20 c-3 -3 -12 -4 -19 -1 -8 3 -5 6 6 6 11 1 17 -2 13 -5z m443 -7
l35 1 -28 -12 c-15 -7 -26 -14 -23 -17 2 -2 -11 -5 -30 -6 -40 -2 -43 4 -11
18 22 9 22 10 0 5 -13 -2 -24 2 -27 10 -4 11 1 13 22 7 15 -4 43 -7 62 -6z
m626 -29 c-2 -18 -11 -49 -19 -69 -9 -20 -13 -39 -10 -43 4 -3 -4 -17 -17 -31
-13 -14 -25 -38 -26 -53 -1 -15 -2 -35 -3 -44 0 -9 -10 -20 -21 -23 -11 -4
-18 -10 -15 -15 3 -4 -4 -6 -15 -3 -16 4 -19 11 -14 27 4 11 11 23 15 24 5 2
9 15 9 29 0 17 4 23 13 20 10 -4 13 1 10 17 -3 13 2 40 11 61 9 20 16 46 16
55 0 11 11 23 28 28 15 6 20 11 12 11 -9 1 -16 10 -16 21 0 14 7 20 23 20 19
0 22 -5 19 -32z m-399 16 c-3 -3 -12 -4 -19 -1 -8 3 -5 6 6 6 11 1 17 -2 13
-5z m263 -5 c-25 -4 -67 -7 -95 -7 l-50 1 55 7 c30 4 73 7 95 7 l40 0 -45 -8z
m2062 -26 c-3 -16 -7 -22 -10 -15 -4 13 4 42 11 42 2 0 2 -12 -1 -27z m103 17
c3 -5 2 -10 -4 -10 -5 0 -13 5 -16 10 -3 6 -2 10 4 10 5 0 13 -4 16 -10z
m-2450 -10 c-3 -5 -11 -10 -16 -10 -6 0 -7 5 -4 10 3 6 11 10 16 10 6 0 7 -4
4 -10z m-450 -9 c-6 -5 -54 -11 -107 -13 -54 -2 -93 -1 -87 3 6 3 45 7 87 8
42 1 78 4 81 7 2 2 11 4 20 4 9 0 11 -3 6 -9z m1278 -37 c-8 -22 -32 -17 -26
5 3 11 11 17 18 14 8 -2 11 -11 8 -19z m-903 1 c-7 -8 -16 -15 -21 -15 -5 0
-6 7 -3 15 4 8 13 15 21 15 13 0 13 -3 3 -15z m-635 -5 c3 -5 1 -10 -4 -10 -6
0 -11 5 -11 10 0 6 2 10 4 10 3 0 8 -4 11 -10z m3255 0 c0 -5 -2 -10 -4 -10
-3 0 -8 5 -11 10 -3 6 -1 10 4 10 6 0 11 -4 11 -10z m-2487 -12 c6 -18 -4 -48
-15 -48 -6 0 -8 7 -4 15 3 9 0 15 -9 15 -8 0 -15 5 -15 11 0 5 5 7 10 4 6 -3
10 -1 10 4 0 15 17 14 23 -1z m197 -2 c0 -8 -7 -17 -16 -20 -23 -9 -24 -8 -24
14 0 13 7 20 20 20 11 0 20 -6 20 -14z m-990 0 c0 -3 -4 -8 -10 -11 -5 -3 -10
-1 -10 4 0 6 5 11 10 11 6 0 10 -2 10 -4z m1608 -43 c-6 -7 -7 -14 -2 -14 5
-1 -4 -4 -21 -8 -17 -4 -33 -2 -37 4 -5 6 -11 5 -18 -5 -7 -11 -10 -12 -10 -2
0 16 25 43 33 36 3 -4 16 1 28 10 17 12 25 13 30 4 5 -7 3 -18 -3 -25z m1385
17 c45 -38 92 -70 110 -76 11 -3 30 -15 41 -27 12 -11 41 -32 65 -48 24 -15
61 -44 82 -64 21 -19 42 -35 47 -35 14 0 36 -30 28 -38 -4 -4 -12 1 -17 11 -6
9 -16 17 -23 17 -8 0 -36 19 -62 43 -27 24 -76 60 -109 81 -83 54 -184 129
-185 139 0 10 9 9 23 -3z m347 -11 c0 -6 -4 -7 -10 -4 -5 3 -10 11 -10 16 0 6
5 7 10 4 6 -3 10 -11 10 -16z m137 -1 c-3 -8 -6 -5 -6 6 -1 11 2 17 5 13 3 -3
4 -12 1 -19z m-2576 -31 c-16 -16 -25 -1 -10 16 8 8 16 11 18 5 2 -5 -2 -15
-8 -21z m-581 3 c0 -5 -2 -10 -4 -10 -3 0 -8 5 -11 10 -3 6 -1 10 4 10 6 0 11
-4 11 -10z m1325 0 c3 -6 -1 -7 -9 -4 -18 7 -21 14 -7 14 6 0 13 -4 16 -10z
m-1024 -18 c-7 -2 -18 1 -23 6 -8 8 -4 9 13 5 13 -4 18 -8 10 -11z m182 -13
c3 -10 1 -22 -4 -25 -5 -3 -9 4 -9 15 0 12 -4 21 -10 21 -5 0 -10 4 -10 10 0
17 28 -1 33 -21z m74 -21 c-3 -7 -5 -2 -5 12 0 14 2 19 5 13 2 -7 2 -19 0 -25z
m113 -9 c0 -17 -4 -28 -9 -25 -5 4 -12 0 -15 -6 -2 -7 -4 3 -4 22 1 19 3 38 5
43 9 16 23 -6 23 -34z m-690 17 c0 -9 -40 -13 -46 -5 -3 5 6 9 20 9 14 0 26
-2 26 -4z m3370 -26 c-18 -11 -22 -7 -14 14 5 13 10 14 18 6 8 -8 7 -13 -4
-20z m-3430 10 c0 -5 -10 -10 -22 -9 -22 0 -22 1 -3 9 11 5 21 9 23 9 1 1 2
-3 2 -9z m784 -5 c-4 -8 -8 -15 -10 -15 -2 0 -4 7 -4 15 0 8 4 15 10 15 5 0 7
-7 4 -15z m-409 -15 c4 -6 -6 -10 -22 -9 -25 0 -26 1 -8 9 11 5 21 9 22 9 1 1
5 -3 8 -9z m309 -5 c-4 -8 -8 -15 -10 -15 -2 0 -4 7 -4 15 0 8 4 15 10 15 5 0
7 -7 4 -15z m549 -10 c-7 -21 -13 -19 -13 6 0 11 4 18 10 14 5 -3 7 -12 3 -20z
m1984 -2 c-3 -3 -11 -2 -17 2 -9 6 -9 10 1 16 14 8 27 -7 16 -18z m-1230 11
c-3 -3 -12 -4 -19 -1 -8 3 -5 6 6 6 11 1 17 -2 13 -5z m-395 -23 c-2 -9 4 -12
18 -8 25 6 26 -9 2 -22 -19 -10 -52 2 -39 15 4 4 1 14 -5 22 -10 12 -9 14 7
10 11 -2 19 -10 17 -17z m-952 -5 c0 -2 -9 -6 -20 -9 -11 -3 -18 -1 -14 4 5 9
34 13 34 5z m-380 -15 c0 -5 -17 -11 -37 -13 -21 -3 -46 -8 -55 -12 -10 -5
-18 -4 -18 1 0 11 53 30 88 32 12 1 22 -3 22 -8z m820 5 c0 -3 -4 -8 -10 -11
-5 -3 -10 -1 -10 4 0 6 5 11 10 11 6 0 10 -2 10 -4z m-390 -21 c4 3 13 -2 20
-10 9 -10 9 -15 1 -15 -6 0 -11 5 -11 10 0 7 -9 6 -22 -2 -31 -17 -231 -18
-216 -1 6 7 30 11 64 9 37 -2 54 1 54 9 0 9 14 10 52 4 28 -5 54 -6 58 -4z
m65 5 c-3 -5 -14 -10 -23 -9 -14 0 -13 2 3 9 27 11 27 11 20 0z m3643 -50 c0
-9 -3 -7 -8 5 -5 11 -8 29 -8 40 0 16 2 15 8 -5 4 -14 8 -32 8 -40z m-2728 40
c0 -5 3 -9 8 -8 16 3 42 -15 43 -31 0 -12 2 -12 9 4 6 15 9 16 9 4 1 -9 -2
-18 -5 -22 -9 -9 -34 4 -34 17 0 14 -72 14 -104 1 -15 -7 -14 -3 5 17 24 26
69 37 69 18z m-1985 -76 c-15 -14 -30 -23 -33 -20 -8 9 29 46 46 46 10 0 6 -9
-13 -26z m4788 19 c-7 -2 -13 -15 -13 -27 0 -12 -6 -28 -12 -35 -7 -7 -8 -12
-3 -11 22 5 27 -1 15 -15 -10 -13 -14 -13 -26 0 -13 12 -12 20 6 55 11 22 26
40 33 39 9 0 9 -2 0 -6z m-2733 -23 c0 -5 -5 -10 -11 -10 -5 0 -7 5 -4 10 3 6
8 10 11 10 2 0 4 -4 4 -10z m780 -20 c0 -5 -2 -10 -4 -10 -3 0 -8 5 -11 10 -3
6 -1 10 4 10 6 0 11 -4 11 -10z m51 -7 c13 -15 12 -15 -11 -3 -34 17 -36 20
-18 20 9 0 22 -7 29 -17z m-2591 -3 c0 -5 -7 -10 -15 -10 -8 0 -15 5 -15 10 0
6 7 10 15 10 8 0 15 -4 15 -10z m3470 1 c0 -10 -34 -21 -67 -21 -35 0 -27 17
8 18 17 0 34 3 37 6 8 9 22 7 22 -3z m-2080 -33 c0 -6 -7 -5 -15 2 -8 7 -15
17 -15 22 0 6 7 5 15 -2 8 -7 15 -17 15 -22z m1805 22 c8 -13 -5 -13 -25 0
-13 8 -13 10 2 10 9 0 20 -4 23 -10z m-3325 -15 c0 -12 -19 -12 -23 0 -4 9 -1
12 9 8 7 -3 14 -7 14 -8z m2710 5 c8 -5 12 -11 9 -14 -3 -3 -14 1 -25 9 -21
16 -8 20 16 5z m660 -16 c0 -12 -6 -15 -25 -10 -14 4 -25 2 -25 -4 0 -5 -7
-10 -15 -10 -30 0 -15 29 18 33 17 2 35 5 40 5 4 1 7 -5 7 -14z m-3315 -24
c-3 -5 1 -10 9 -10 9 0 16 -5 16 -10 0 -6 -16 -10 -35 -8 -38 2 -44 12 -17 27
22 13 35 14 27 1z m3215 0 c0 -5 -4 -10 -10 -10 -5 0 -10 5 -10 10 0 6 5 10
10 10 6 0 10 -4 10 -10z m-2976 -21 c-3 -5 -10 -7 -15 -3 -5 3 -7 10 -3 15 3
5 10 7 15 3 5 -3 7 -10 3 -15z m146 -19 c0 -5 -17 -9 -37 -9 l-38 2 35 7 c19
4 36 8 38 9 1 0 2 -3 2 -9z m119 6 c-10 -9 -79 -14 -74 -5 4 5 22 9 42 9 20 0
34 -2 32 -4z m4976 -16 c10 -11 16 -20 13 -20 -3 0 -13 9 -23 20 -10 11 -16
20 -13 20 3 0 13 -9 23 -20z m-2158 -22 c-3 -7 -5 -2 -5 12 0 14 2 19 5 13 2
-7 2 -19 0 -25z m-790 16 c-3 -3 -12 -4 -19 -1 -8 3 -5 6 6 6 11 1 17 -2 13
-5z m-161 -31 c-6 -6 -36 9 -36 18 0 5 9 4 20 -3 10 -7 18 -14 16 -15z m-2391
-13 c-3 -5 -10 -10 -16 -10 -5 0 -9 5 -9 10 0 6 7 10 16 10 8 0 12 -4 9 -10z
m4709 1 c6 -10 -24 -25 -32 -16 -3 3 1 5 9 5 11 0 11 2 -1 10 -13 8 -13 10 2
10 9 0 19 -4 22 -9z m-1680 -33 c11 -13 41 -39 66 -58 25 -19 65 -53 89 -75
24 -22 56 -51 71 -65 15 -14 36 -30 46 -36 10 -6 20 -17 22 -25 3 -9 -3 -7
-17 6 -19 16 -24 17 -33 5 -8 -12 -9 -12 -4 2 4 13 -15 35 -66 80 -39 35 -82
73 -96 86 -14 12 -28 22 -31 22 -8 0 -81 67 -81 74 0 12 13 5 34 -16z m-604
-12 c0 -2 -7 -9 -15 -16 -13 -11 -14 -10 -9 4 5 14 24 23 24 12z m-863 -32
c-3 -3 -12 -4 -19 -1 -8 3 -5 6 6 6 11 1 17 -2 13 -5z m1822 -11 c19 -36 11
-113 -11 -113 -6 0 -8 -9 -5 -20 3 -11 1 -18 -4 -14 -5 3 -9 1 -9 -4 0 -6 -7
-13 -16 -16 -14 -5 -15 4 -9 74 3 44 8 87 11 95 8 20 31 19 43 -2z m48 -5 c-3
-8 -6 -5 -6 6 -1 11 2 17 5 13 3 -3 4 -12 1 -19z m20 -15 c-3 -10 -5 -4 -5 12
0 17 2 24 5 18 2 -7 2 -21 0 -30z m1193 21 c0 -8 -5 -12 -10 -9 -6 4 -8 11 -5
16 9 14 15 11 15 -7z m-4065 -14 c3 -5 1 -10 -4 -10 -6 0 -11 -4 -11 -10 0 -5
7 -7 15 -4 8 4 15 2 15 -4 0 -5 -16 -10 -36 -10 -32 0 -33 1 -17 14 17 13 17
14 -2 7 -18 -6 -18 -5 -6 10 15 19 37 22 46 7z m35 6 c0 -3 -4 -8 -10 -11 -5
-3 -10 -1 -10 4 0 6 5 11 10 11 6 0 10 -2 10 -4z m4018 -27 c3 -12 2 -12 -6 0
-8 11 -10 11 -15 0 -4 -10 -6 -8 -6 4 -1 21 21 18 27 -4z m-3558 -9 c0 -5 -7
-10 -15 -10 -8 0 -15 5 -15 10 0 6 7 10 15 10 8 0 15 -4 15 -10z m327 -52 c-3
-7 -5 -2 -5 12 0 14 2 19 5 13 2 -7 2 -19 0 -25z m-881 0 c5 -7 3 -8 -6 -3 -9
5 -11 4 -6 -4 4 -6 16 -9 26 -6 14 4 17 2 14 -12 -4 -15 -13 -18 -46 -15 -28
3 -36 7 -27 13 8 5 10 9 5 9 -11 0 13 30 25 30 4 0 11 -5 15 -12z m2414 -11
c0 -13 5 -28 12 -35 9 -9 8 -12 -5 -12 -9 0 -17 6 -17 13 0 6 -3 22 -6 35 -4
13 -2 22 5 22 6 0 11 -10 11 -23z m225 -33 c11 -6 24 -25 30 -42 10 -36 25
-43 25 -12 0 11 7 20 15 20 8 0 15 -5 15 -11 0 -5 -4 -7 -10 -4 -6 3 -10 -4
-10 -16 0 -19 -4 -21 -31 -15 -28 5 -31 4 -26 -14 3 -11 1 -20 -4 -20 -5 0 -9
7 -9 15 0 7 -7 18 -16 23 -11 6 -18 27 -21 63 -4 46 -2 52 9 39 7 -8 22 -20
33 -26z m-2245 6 c0 -5 -4 -10 -10 -10 -5 0 -10 5 -10 10 0 6 5 10 10 10 6 0
10 -4 10 -10z m-1000 -14 c0 -2 -8 -10 -17 -17 -16 -13 -17 -12 -4 4 13 16 21
21 21 13z m588 -45 c-4 -18 -65 -41 -86 -33 -10 4 -9 10 7 26 19 18 24 19 43
7 18 -11 20 -11 15 1 -3 9 1 15 9 15 8 0 13 -7 12 -16z m2755 -31 c3 -11 1
-18 -4 -14 -5 3 -9 12 -9 20 0 20 7 17 13 -6z m-453 -12 c0 -12 -3 -18 -7 -14
-11 10 -12 36 -2 36 5 0 9 -10 9 -22z m2571 -26 c-7 -2 -18 1 -23 6 -8 8 -4 9
13 5 13 -4 18 -8 10 -11z m-2088 -7 c22 -9 22 -25 -1 -25 -10 0 -22 -3 -26 -7
-3 -4 -15 -8 -25 -10 -14 -2 -18 4 -18 22 0 31 27 39 70 20z m-3387 -30 c-9
-7 -16 -16 -16 -21 -1 -13 -40 -61 -40 -48 0 20 63 109 68 95 3 -8 -3 -20 -12
-26z m479 25 c3 -6 -4 -10 -17 -10 -18 0 -20 2 -8 10 19 12 18 12 25 0z m68
-8 c-5 -20 -43 -48 -43 -32 0 5 5 10 11 10 6 0 9 6 6 14 -6 16 1 26 19 26 7 0
10 -8 7 -18z m3032 8 c3 -5 1 -10 -4 -10 -6 0 -11 5 -11 10 0 6 2 10 4 10 3 0
8 -4 11 -10z m-1970 -10 c-3 -5 -10 -10 -16 -10 -5 0 -9 5 -9 10 0 6 7 10 16
10 8 0 12 -4 9 -10z m3069 -15 c-4 -8 -10 -15 -15 -15 -5 0 -9 7 -9 15 0 8 7
15 15 15 9 0 12 -6 9 -15z m-2224 -9 c0 -2 -7 -7 -16 -10 -8 -3 -12 -2 -9 4 6
10 25 14 25 6z m-2570 -16 c0 -5 -4 -10 -10 -10 -5 0 -10 5 -10 10 0 6 5 10
10 10 6 0 10 -4 10 -10z m2220 -40 c0 -5 -2 -10 -4 -10 -3 0 -8 5 -11 10 -3 6
-1 10 4 10 6 0 11 -4 11 -10z m555 0 c3 -5 1 -10 -4 -10 -6 0 -11 5 -11 10 0
6 2 10 4 10 3 0 8 -4 11 -10z m-385 -20 c0 -5 -5 -10 -11 -10 -5 0 -7 5 -4 10
3 6 8 10 11 10 2 0 4 -4 4 -10z m-2330 -4 c0 -3 -4 -8 -10 -11 -5 -3 -10 -1
-10 4 0 6 5 11 10 11 6 0 10 -2 10 -4z m495 -26 c3 -5 -1 -10 -9 -10 -9 0 -16
5 -16 10 0 6 4 10 9 10 6 0 13 -4 16 -10z m3173 -22 c-9 -7 -7 -8 7 -4 11 3
29 -2 41 -12 25 -20 43 -77 22 -69 -7 2 -12 12 -12 21 2 15 -14 21 -45 16 -19
-2 -31 19 -31 54 0 25 2 27 15 16 13 -11 13 -15 3 -22z m-928 -19 c0 -12 -7
-19 -20 -19 -14 0 -20 7 -20 24 0 19 4 23 20 19 11 -3 20 -14 20 -24z m-2610
17 c0 -3 -4 -8 -10 -11 -5 -3 -10 -1 -10 4 0 6 5 11 10 11 6 0 10 -2 10 -4z
m1920 -51 c0 -5 -5 -3 -10 5 -5 8 -10 20 -10 25 0 6 5 3 10 -5 5 -8 10 -19 10
-25z m-1605 -1 c-11 -8 -30 -17 -43 -21 -14 -3 -21 -11 -18 -19 6 -16 -10 -19
-19 -4 -5 8 -12 7 -23 -2 -12 -8 -14 -9 -6 0 14 16 95 59 114 60 11 1 9 -3 -5
-14z m539 -9 c-7 -16 -24 -21 -24 -6 0 8 7 13 27 20 1 1 0 -6 -3 -14z m1750
-1 c3 -9 6 -23 6 -32 -1 -15 -3 -14 -15 2 -17 22 -20 46 -6 46 5 0 12 -7 15
-16z m2712 9 c-11 -11 -35 -12 -42 -2 -3 5 7 9 22 9 15 0 24 -3 20 -7z m-2187
-36 c0 -12 -3 -17 -5 -10 -3 7 -12 9 -21 6 -13 -5 -14 -3 -4 16 14 26 31 19
30 -12z m-3059 19 c0 -3 -4 -8 -10 -11 -5 -3 -10 -1 -10 4 0 6 5 11 10 11 6 0
10 -2 10 -4z m3267 -2 c-3 -3 -12 -4 -19 -1 -8 3 -5 6 6 6 11 1 17 -2 13 -5z
m-3207 -19 c0 -8 -4 -15 -9 -15 -13 0 -22 16 -14 24 11 11 23 6 23 -9z m2066
-13 c-17 -16 -18 -16 -5 5 7 12 15 20 18 17 3 -2 -3 -12 -13 -22z m977 11 c-7
-2 -19 -2 -25 0 -7 3 -2 5 12 5 14 0 19 -2 13 -5z m90 0 c-7 -2 -21 -2 -30 0
-10 3 -4 5 12 5 17 0 24 -2 18 -5z m82 -12 c-3 -6 -11 -11 -17 -11 -6 0 -6 6
2 15 14 17 26 13 15 -4z m-3155 -11 c0 -5 -10 -10 -22 -9 -22 0 -22 1 -3 9 11
5 21 9 23 9 1 1 2 -3 2 -9z"/>
<path d="M4100 3025 c0 -5 5 -17 10 -25 5 -8 10 -10 10 -5 0 6 -5 17 -10 25
-5 8 -10 11 -10 5z"/>
<path d="M3678 1603 c7 -3 16 -2 19 1 4 3 -2 6 -13 5 -11 0 -14 -3 -6 -6z"/>
<path d="M6278 2933 c23 -2 61 -2 85 0 23 2 4 4 -43 4 -47 0 -66 -2 -42 -4z"/>
<path d="M5470 2833 c0 -4 5 -15 10 -23 8 -13 10 -13 10 2 0 9 -4 20 -10 23
-5 3 -10 3 -10 -2z"/>
</g>
</svg>
